<svg width="20" height="20" viewBox="0 0 20 20" fill="none" xmlns="http://www.w3.org/2000/svg">
<path d="M14.457 0.452637V0.958496C14.457 2.31777 14.0967 3.37254 13.3818 4.0874C12.667 4.80227 11.6122 5.16258 10.2529 5.1626H9.74707V4.65771C9.74707 3.29832 10.1074 2.24273 10.8223 1.52783C11.5372 0.812932 12.5928 0.452637 13.9521 0.452637H14.457ZM13.4199 1.48975C12.5969 1.56405 11.9768 1.81861 11.5439 2.25146C11.1113 2.68429 10.856 3.30511 10.7793 4.13037C11.6179 4.0566 12.2406 3.80773 12.6709 3.37744C13.1011 2.94715 13.3485 2.32581 13.4199 1.48975Z" fill="#4A5565" stroke="#4A5565" stroke-width="0.189055"/>
<path d="M13.541 5.38428C15.057 5.38437 16.4707 6.11437 17.4326 7.37939H17.4336L17.793 7.85693L17.876 7.96729L17.7432 8.00537L17.168 8.16943C15.7332 8.58303 14.7771 9.93677 14.8682 11.4272C14.9591 12.9177 16.0726 14.1454 17.5469 14.3813H17.5479L18.0156 14.4585L18.123 14.4761L18.0898 14.5806L17.9463 15.0327C17.0897 17.7875 15.4082 19.5472 13.541 19.5474C12.9483 19.547 12.3633 19.4208 11.8242 19.1792L11.5957 19.0688C10.8109 18.6487 9.87742 18.6221 9.07422 18.9897L8.91504 19.0688C8.31473 19.3825 7.64705 19.5469 6.96973 19.5474C5.54028 19.5473 4.28187 18.5664 3.38574 16.9985C2.48856 15.4287 1.94336 13.2542 1.94336 10.8218C1.94343 7.83319 4.1931 5.38441 6.96973 5.38428C7.48913 5.38428 8.00539 5.47089 8.49609 5.64111L10.0215 6.17041C10.1761 6.22382 10.3444 6.22376 10.499 6.17041L12.0195 5.64111C12.5087 5.47167 13.0233 5.38505 13.541 5.38428ZM13.541 6.39502C13.1353 6.39517 12.732 6.46358 12.3486 6.59619L10.8232 7.12451C10.4554 7.25085 10.0552 7.25086 9.6875 7.12451L8.15625 6.59619C7.77298 6.46363 7.37038 6.39502 6.96484 6.39502C4.75977 6.39502 2.94929 8.37368 2.94922 10.8218C2.94922 12.9256 3.41673 14.8627 4.15723 16.27C4.90057 17.6827 5.90368 18.5356 6.96484 18.5356L7.15723 18.5308C7.60523 18.5045 8.04335 18.3827 8.44141 18.1724L8.65332 18.0679C9.15462 17.8395 9.69925 17.7187 10.252 17.7144H10.2539C10.8853 17.7193 11.5066 17.8765 12.0645 18.1724C12.5192 18.4124 13.0258 18.5367 13.54 18.5356H13.541C14.1815 18.5356 14.8146 18.2243 15.3867 17.6421C15.9425 17.0766 16.4346 16.2595 16.8125 15.2427C15.0558 14.703 13.8516 13.0787 13.8574 11.2329V11.2319C13.8646 9.64264 14.7635 8.1981 16.1748 7.48389C15.449 6.78739 14.5199 6.3951 13.541 6.39502Z" fill="#4A5565" stroke="#4A5565" stroke-width="0.189055"/>
</svg>
