<svg width="20" height="20" viewBox="0 0 20 20" fill="none" xmlns="http://www.w3.org/2000/svg">
<path d="M2.74492 0C1.22474 0 0 1.27366 0 2.80976V17.1928C0 18.7289 1.22474 20 2.74492 20H17.2544C18.7746 20 19.9994 18.7289 19.9994 17.1928V2.80976C19.9994 1.27366 18.7746 0 17.2544 0H2.74492ZM2.74492 1.21857H17.2544C18.1016 1.21857 18.7814 1.90865 18.7814 2.80976V17.1928C18.7814 18.0939 18.1016 18.7821 17.2544 18.7821H2.74492C1.89773 18.7821 1.21794 18.0939 1.21794 17.1928V2.80976C1.21794 1.90865 1.89773 1.21857 2.74492 1.21857ZM3.65322 2.98285C3.31666 2.98269 3.04376 3.25557 3.04392 3.59213C3.04411 3.92845 3.3169 4.20094 3.65322 4.20079C3.98954 4.20094 4.26226 3.92845 4.26245 3.59213C4.26261 3.25557 3.98978 2.98269 3.65322 2.98285ZM5.58677 2.98285C5.25021 2.98269 4.97731 3.25557 4.97747 3.59213C4.97766 3.92845 5.25046 4.20094 5.58677 4.20079C5.92309 4.20094 6.19588 3.92845 6.19608 3.59213C6.19624 3.25557 5.92334 2.98269 5.58677 2.98285ZM7.52036 2.98285C7.1838 2.98269 6.91094 3.25557 6.9111 3.59213C6.91129 3.92845 7.18404 4.20094 7.52036 4.20079C7.85644 4.20059 8.12884 3.92821 8.12903 3.59213C8.12919 3.25581 7.85668 2.98304 7.52036 2.98285ZM2.73547 7.52726C2.56823 7.8178 2.66725 8.18888 2.95701 8.35747L5.06943 9.57792L2.95701 10.7984C2.66611 10.967 2.56695 11.3395 2.73547 11.6305C2.90406 11.9202 3.27518 12.0193 3.56572 11.852L6.59198 10.106C6.99946 9.87185 6.99946 9.28398 6.59198 9.04983L3.56572 7.30381C3.20763 7.14344 2.9057 7.23243 2.73547 7.52726ZM7.27678 11.9352C6.94046 11.9354 6.668 12.2081 6.66815 12.5444C6.66833 12.8805 6.94071 13.1529 7.27678 13.1531H9.79135C10.1277 13.1533 10.4004 12.8808 10.4006 12.5444C10.4008 12.2079 10.1279 11.935 9.79135 11.9352H7.27678Z" fill="#2B2E8C"/>
</svg>
